<svg id="visual" viewBox="0 0 3200 2400" width="3200" height="2400" xmlns="http://www.w3.org/2000/svg" xmlns:xlink="http://www.w3.org/1999/xlink" version="1.1"><rect x="0" y="0" width="3200" height="2400" fill="#001220"></rect><defs><linearGradient id="grad1_0" x1="25%" y1="0%" x2="100%" y2="100%"><stop offset="23.333333333333336%" stop-color="#fbae3c" stop-opacity="1"></stop><stop offset="76.66666666666666%" stop-color="#fbae3c" stop-opacity="1"></stop></linearGradient></defs><defs><linearGradient id="grad1_1" x1="25%" y1="0%" x2="100%" y2="100%"><stop offset="23.333333333333336%" stop-color="#fbae3c" stop-opacity="1"></stop><stop offset="76.66666666666666%" stop-color="#e1685e" stop-opacity="1"></stop></linearGradient></defs><defs><linearGradient id="grad1_2" x1="25%" y1="0%" x2="100%" y2="100%"><stop offset="23.333333333333336%" stop-color="#96446e" stop-opacity="1"></stop><stop offset="76.66666666666666%" stop-color="#e1685e" stop-opacity="1"></stop></linearGradient></defs><defs><linearGradient id="grad1_3" x1="25%" y1="0%" x2="100%" y2="100%"><stop offset="23.333333333333336%" stop-color="#96446e" stop-opacity="1"></stop><stop offset="76.66666666666666%" stop-color="#3d3056" stop-opacity="1"></stop></linearGradient></defs><defs><linearGradient id="grad1_4" x1="25%" y1="0%" x2="100%" y2="100%"><stop offset="23.333333333333336%" stop-color="#001220" stop-opacity="1"></stop><stop offset="76.66666666666666%" stop-color="#3d3056" stop-opacity="1"></stop></linearGradient></defs><defs><linearGradient id="grad2_0" x1="0%" y1="0%" x2="75%" y2="100%"><stop offset="23.333333333333336%" stop-color="#fbae3c" stop-opacity="1"></stop><stop offset="76.66666666666666%" stop-color="#fbae3c" stop-opacity="1"></stop></linearGradient></defs><defs><linearGradient id="grad2_1" x1="0%" y1="0%" x2="75%" y2="100%"><stop offset="23.333333333333336%" stop-color="#e1685e" stop-opacity="1"></stop><stop offset="76.66666666666666%" stop-color="#fbae3c" stop-opacity="1"></stop></linearGradient></defs><defs><linearGradient id="grad2_2" x1="0%" y1="0%" x2="75%" y2="100%"><stop offset="23.333333333333336%" stop-color="#e1685e" stop-opacity="1"></stop><stop offset="76.66666666666666%" stop-color="#96446e" stop-opacity="1"></stop></linearGradient></defs><defs><linearGradient id="grad2_3" x1="0%" y1="0%" x2="75%" y2="100%"><stop offset="23.333333333333336%" stop-color="#3d3056" stop-opacity="1"></stop><stop offset="76.66666666666666%" stop-color="#96446e" stop-opacity="1"></stop></linearGradient></defs><defs><linearGradient id="grad2_4" x1="0%" y1="0%" x2="75%" y2="100%"><stop offset="23.333333333333336%" stop-color="#3d3056" stop-opacity="1"></stop><stop offset="76.66666666666666%" stop-color="#001220" stop-opacity="1"></stop></linearGradient></defs><g transform="translate(3200, 0)"><path d="M0 1800C-163.6 1800.9 -327.2 1801.8 -465.9 1738.7C-604.6 1675.6 -718.3 1548.5 -839 1453.2C-959.7 1357.9 -1087.3 1294.4 -1205.6 1205.6C-1323.9 1116.9 -1433 1002.9 -1513.8 874C-1594.7 745.1 -1647.4 601.1 -1690.4 452.9C-1733.4 304.8 -1766.7 152.4 -1800 0L0 0Z" fill="#18223c"></path><path d="M0 1440C-130.9 1440.7 -261.8 1441.4 -372.7 1390.9C-483.6 1340.5 -574.7 1238.8 -671.2 1162.6C-767.7 1086.3 -869.8 1035.5 -964.5 964.5C-1059.1 893.5 -1146.4 802.4 -1211 699.2C-1275.7 596 -1317.9 480.9 -1352.3 362.3C-1386.7 243.8 -1413.3 121.9 -1440 0L0 0Z" fill="#683a67"></path><path d="M0 1080C-98.2 1080.5 -196.3 1081.1 -279.5 1043.2C-362.7 1005.3 -431 929.1 -503.4 871.9C-575.8 814.7 -652.4 776.6 -723.4 723.4C-794.4 670.1 -859.8 601.8 -908.3 524.4C-956.8 447 -988.4 360.7 -1014.2 271.8C-1040 182.9 -1060 91.4 -1080 0L0 0Z" fill="#c0526a"></path><path d="M0 720C-65.4 720.4 -130.9 720.7 -186.3 695.5C-241.8 670.2 -287.3 619.4 -335.6 581.3C-383.9 543.2 -434.9 517.7 -482.2 482.2C-529.6 446.8 -573.2 401.2 -605.5 349.6C-637.9 298 -658.9 240.4 -676.1 181.2C-693.3 121.9 -706.7 61 -720 0L0 0Z" fill="#f6884d"></path><path d="M0 360C-32.7 360.2 -65.4 360.4 -93.2 347.7C-120.9 335.1 -143.7 309.7 -167.8 290.6C-191.9 271.6 -217.5 258.9 -241.1 241.1C-264.8 223.4 -286.6 200.6 -302.8 174.8C-318.9 149 -329.5 120.2 -338.1 90.6C-346.7 61 -353.3 30.5 -360 0L0 0Z" fill="#fbae3c"></path></g><g transform="translate(0, 2400)"><path d="M0 -1800C135 -1714.9 270 -1629.7 430.9 -1608.3C591.9 -1586.8 778.8 -1629 900 -1558.8C1021.2 -1488.7 1076.7 -1306.2 1185.1 -1185.1C1293.5 -1064 1454.8 -1004.2 1539.8 -889C1624.8 -773.8 1633.6 -603.3 1664.3 -445.9C1695 -288.6 1747.5 -144.3 1800 0L0 0Z" fill="#18223c"></path><path d="M0 -1440C108 -1371.9 216 -1303.8 344.7 -1286.6C473.5 -1269.4 623 -1303.2 720 -1247.1C817 -1191 861.4 -1045 948.1 -948.1C1034.8 -851.2 1163.8 -803.3 1231.8 -711.2C1299.9 -619.1 1306.9 -482.7 1331.4 -356.8C1356 -230.8 1398 -115.4 1440 0L0 0Z" fill="#683a67"></path><path d="M0 -1080C81 -1028.9 162 -977.8 258.6 -965C355.1 -952.1 467.3 -977.4 540 -935.3C612.7 -893.2 646 -783.7 711.1 -711.1C776.1 -638.4 872.9 -602.5 923.9 -533.4C974.9 -464.3 980.2 -362 998.6 -267.6C1017 -173.1 1048.5 -86.6 1080 0L0 0Z" fill="#c0526a"></path><path d="M0 -720C54 -685.9 108 -651.9 172.4 -643.3C236.8 -634.7 311.5 -651.6 360 -623.5C408.5 -595.5 430.7 -522.5 474 -474C517.4 -425.6 581.9 -401.7 615.9 -355.6C649.9 -309.5 653.5 -241.3 665.7 -178.4C678 -115.4 699 -57.7 720 0L0 0Z" fill="#f6884d"></path><path d="M0 -360C27 -343 54 -325.9 86.2 -321.7C118.4 -317.4 155.8 -325.8 180 -311.8C204.2 -297.7 215.3 -261.2 237 -237C258.7 -212.8 291 -200.8 308 -177.8C325 -154.8 326.7 -120.7 332.9 -89.2C339 -57.7 349.5 -28.9 360 0L0 0Z" fill="#fbae3c"></path></g></svg>